HIERARCHY
ROOT SpineBase
{
  OFFSET 0.000000 0.000000 0.000000
  CHANNELS 6 Xposition Yposition Zposition Zrotation Xrotation Yrotation
  JOINT SpineMid
  {
    OFFSET 0.000000 31.576503 0.000000
    CHANNELS 3 Zrotation Xrotation Yrotation
    JOINT SpineShoulder
    {
      OFFSET -0.030435 23.418362 -0.775311
      CHANNELS 3 Zrotation Xrotation Yrotation
      JOINT Neck
      {
        OFFSET -0.029168 7.746567 -0.576256
        CHANNELS 3 Zrotation Xrotation Yrotation
        JOINT Head
        {
          OFFSET 1.718142 15.742634 -3.450789
          CHANNELS 3 Zrotation Xrotation Yrotation
          End Site
          {
            OFFSET 0 0 0
          }
        }
      }
      JOINT ShoulderLeft
      {
        OFFSET -17.312310 -3.095047 -2.811538
        CHANNELS 3 Zrotation Xrotation Yrotation
        JOINT ElbowLeft
        {
          OFFSET -4.923074 -27.759026 -0.691629
          CHANNELS 3 Zrotation Xrotation Yrotation
          JOINT WristLeft
          {
            OFFSET -0.585801 -22.315569 -7.136147
            CHANNELS 3 Zrotation Xrotation Yrotation
            JOINT HandLeft
            {
              OFFSET 1.601105 -7.965747 -1.846634
              CHANNELS 3 Zrotation Xrotation Yrotation
              JOINT HandTipLeft
              {
                OFFSET 0.098984 -7.691607 -2.449045
                CHANNELS 3 Zrotation Xrotation Yrotation
                End Site
                {
                  OFFSET 0 0 0
                }
              }
              JOINT ThumbLeft
              {
                OFFSET 3.494876 0.184378 -1.890665
                CHANNELS 3 Zrotation Xrotation Yrotation
                End Site
                {
                  OFFSET 0 0 0
                }
              }
            }
          }
        }
      }
      JOINT ShoulderRight
      {
        OFFSET 15.941748 -5.053215 3.272764
        CHANNELS 3 Zrotation Xrotation Yrotation
        JOINT ElbowRight
        {
          OFFSET 5.470007 -29.356095 2.715567
          CHANNELS 3 Zrotation Xrotation Yrotation
          JOINT WristRight
          {
            OFFSET 8.258161 -16.061183 -14.275452
            CHANNELS 3 Zrotation Xrotation Yrotation
            JOINT HandRight
            {
              OFFSET 3.351462 -1.704115 -4.752619
              CHANNELS 3 Zrotation Xrotation Yrotation
              JOINT HandTipRight
              {
                OFFSET 4.124078 -1.216788 -8.574361
                CHANNELS 3 Zrotation Xrotation Yrotation
                End Site
                {
                  OFFSET 0 0 0
                }
              }
              JOINT ThumbRight
              {
                OFFSET -4.307198 -4.718259 -0.801973
                CHANNELS 3 Zrotation Xrotation Yrotation
                End Site
                {
                  OFFSET 0 0 0
                }
              }
            }
          }
        }
      }
    }
  }
  JOINT HipLeft
  {
    OFFSET -7.191129 1.201541 -4.656492
    CHANNELS 3 Zrotation Xrotation Yrotation
    JOINT KneeLeft
    {
      OFFSET -5.715903 -39.580876 -0.680268
      CHANNELS 3 Zrotation Xrotation Yrotation
      JOINT AnkleLeft
      {
        OFFSET -2.645414 -36.389576 8.449543
        CHANNELS 3 Zrotation Xrotation Yrotation
        JOINT FootLeft
        {
          OFFSET 1.543390 -4.105342 -13.983530
          CHANNELS 3 Zrotation Xrotation Yrotation
          End Site
          {
            OFFSET 0 0 0
          }
        }
      }
    }
  }
  JOINT HipRight
  {
    OFFSET 6.584302 0.344074 -2.463047
    CHANNELS 3 Zrotation Xrotation Yrotation
    JOINT KneeRight
    {
      OFFSET 1.450161 -41.079613 1.436318
      CHANNELS 3 Zrotation Xrotation Yrotation
      JOINT AnkleRight
      {
        OFFSET -2.673883 -36.336300 7.378652
        CHANNELS 3 Zrotation Xrotation Yrotation
        JOINT FootRight
        {
          OFFSET 0.461114 -8.739444 -5.431705
          CHANNELS 3 Zrotation Xrotation Yrotation
          End Site
          {
            OFFSET 0 0 0
          }
        }
      }
    }
  }
}
MOTION
Frames: 5
Frame Time: 0.033333
33.662773 85.021410 349.223857 -0.586984 -1.305587 -18.279902 -0.377726 -0.104396 18.243377 -0.054859 0.046224 -0.046384 -17.026793 2.368438 -3.417115 0.000000 0.000000 0.000000 -7.729609 1.382268 0.457746 10.483452 -4.775031 -0.537535 -3.024250 3.646868 0.711062 5.833089 -8.881328 -1.427076 0.000000 0.000000 0.000000 0.000000 0.000000 0.000000 15.892251 -12.380339 0.351561 53.665362 21.484349 -55.728074 -15.574394 44.649917 6.457188 -26.683167 -32.776072 -22.189797 0.000000 0.000000 0.000000 0.000000 0.000000 0.000000 -1.702576 -1.656627 18.651954 2.312339 0.975698 -0.426223 2.829203 -0.490281 -9.352875 0.000000 0.000000 0.000000 -1.405961 1.161765 18.260387 1.557458 -0.237455 0.049277 12.028128 27.451611 -7.743054 0.000000 0.000000 0.000000
33.712213 85.031145 349.168983 -1.019943 -1.471612 -19.861112 -0.429820 -0.115885 19.803306 -0.044246 0.055291 -0.065676 -17.219974 2.969334 -3.444690 0.000000 0.000000 0.000000 -8.644696 1.752679 0.554879 11.593856 -5.388203 -0.405951 -4.885551 3.964339 1.272020 6.754098 -8.385183 -1.656523 0.000000 0.000000 0.000000 0.000000 0.000000 0.000000 28.974312 -14.847757 2.799170 62.150010 28.511096 -71.893129 -17.604350 32.719495 6.457087 -22.260029 -23.394598 -18.083625 0.000000 0.000000 0.000000 0.000000 0.000000 0.000000 -1.393598 -1.765610 20.273616 2.500404 1.283339 -0.489096 3.100327 -0.796067 -10.439041 0.000000 0.000000 0.000000 -1.205227 1.712627 19.855502 0.972646 -1.235598 -0.037201 15.246755 32.073106 -9.865310 0.000000 0.000000 0.000000
33.756749 85.052595 349.142109 -1.464299 -1.610503 -21.201576 -0.453807 -0.127287 21.121648 -0.038892 0.050560 -0.084861 -17.082837 3.331737 -3.419670 0.000000 0.000000 0.000000 -9.131481 2.234961 0.628239 12.057625 -5.886386 -0.183031 -6.063195 4.976747 1.837481 7.259361 -10.545815 -1.889265 0.000000 0.000000 0.000000 0.000000 0.000000 0.000000 43.077052 -16.233743 5.840192 70.153147 31.464020 -88.868130 -22.456990 34.086266 11.700284 -19.510256 -21.586651 -20.669073 0.000000 0.000000 0.000000 0.000000 0.000000 0.000000 -1.073599 -1.761542 21.637150 2.687614 1.484178 -0.526874 3.218763 -1.007716 -11.062194 0.000000 0.000000 0.000000 -1.011663 2.269485 21.209743 0.726350 -1.566733 -0.104807 16.500518 31.033310 -10.577489 0.000000 0.000000 0.000000
33.817716 85.094791 349.132585 -1.836200 -1.716771 -22.049913 -0.452371 -0.137042 21.951080 -0.039576 0.041458 -0.100580 -16.656306 3.592040 -3.342849 0.000000 0.000000 0.000000 -9.057113 2.861200 0.649916 11.879957 -6.166708 0.078753 -6.164430 6.726497 2.319573 6.282277 -10.095387 -1.927868 0.000000 0.000000 0.000000 0.000000 0.000000 0.000000 54.571879 -12.288759 7.232971 73.267657 29.745442 -97.424166 -21.369597 23.518463 9.510347 -19.926962 -13.957803 -16.740012 0.000000 0.000000 0.000000 0.000000 0.000000 0.000000 -0.847505 -1.673952 22.491923 2.914170 1.523729 -0.529052 3.116747 -1.023772 -11.043549 0.000000 0.000000 0.000000 -0.954887 2.724031 22.071040 0.590815 -1.907174 -0.164225 18.490052 34.538708 -12.010022 0.000000 0.000000 0.000000
33.921315 85.142274 349.120362 -2.081672 -1.766357 -22.324904 -0.429218 -0.134128 22.213964 -0.032406 0.048984 -0.109172 -16.064488 3.577027 -3.253807 0.000000 0.000000 0.000000 -8.634899 3.345210 0.623517 11.266250 -6.015042 0.291618 -4.895278 8.843152 2.490323 3.971827 -9.852381 -1.828450 0.000000 0.000000 0.000000 0.000000 0.000000 0.000000 61.122930 -4.501598 5.869881 69.871547 26.115452 -94.468130 -23.879481 19.551618 9.036394 -18.914930 -8.405011 -14.516057 0.000000 0.000000 0.000000 0.000000 0.000000 0.000000 -0.744396 -1.574030 22.762057 3.120749 1.447864 -0.510542 2.866769 -0.859656 -10.426610 0.000000 0.000000 0.000000 -1.032913 2.965067 22.355390 0.714532 -2.154321 -0.180060 17.139630 33.413404 -10.848460 0.000000 0.000000 0.000000
